<svg aria-hidden="true" style="position:absolute;width:0;height:0;overflow:hidden" xmlns="http://www.w3.org/2000/svg">
    <defs>

        <symbol id="icon-icon_line" viewBox="0 0 26 32">
        <path fill="#faff00" style="fill: var(--color1, #faff00)" d="M8.208 29.633l2.725-2.794-3.228-3.31-2.725 2.794 3.228 3.31zM9.51 26.839l-1.302 1.335-1.805-1.851 1.302-1.335 1.805 1.851z"></path>
        <path fill="#faff00" style="fill: var(--color1, #faff00)" d="M25.53 4.129l-4.026-4.128-1.42-0.001-19.93 19.911v0.948l0.798 0.818-0.798 0.819v1.449l7.332 8.055h1.434l4.322-4.432v-1.446l-4.35-4.906 16.639-17.088zM1.161 20.432v-0.085l2.806-2.804 2.375 2.435 0.712-0.73-2.365-2.425 0.809-0.808 1.349 1.383 0.712-0.73-1.339-1.373 0.809-0.808 2.336 2.395 0.712-0.73-2.326-2.385 0.809-0.808 1.309 1.342 0.712-0.73-1.3-1.333 0.809-0.808 2.296 2.355 0.712-0.73-2.287-2.345 0.809-0.808 1.27 1.302 0.712-0.73-1.26-1.292 0.809-0.808 2.257 2.314 0.712-0.73-2.248-2.305 0.809-0.808 1.231 1.262 0.712-0.73-1.221-1.252 0.809-0.808 2.218 2.274 0.712-0.73-2.212-2.27 0.809-0.808 1.191 1.222 0.712-0.73-1.182-1.212 0.809-0.808 2.179 2.234 0.712-0.73-2.169-2.224 0.507-0.507h0.595l3.019 3.097-16.087 16.521-5.537-0.542-0.819 0.839-0.503-0.517zM1.161 22.923l1.698-1.741 4.239 0.415-3.982 4.089-1.955-2.148v-0.615zM12.235 26.522v0.619l-3.732 3.826h-0.579l-4.12-4.526 4.376-4.494 4.055 4.575z"></path>
        </symbol>

        <symbol id="icon-icon_eq" viewBox="0 0 31 32">
<path fill="#faff00" style="fill: var(--color1, #faff00)" d="M21.554 17.585h-12.389c-0.197 0-0.351-0.154-0.351-0.351s0.154-0.351 0.351-0.351h12.383c0.197 0 0.351 0.154 0.351 0.351s-0.154 0.351-0.344 0.351h-0zM21.554 15.128h-12.389c-0.197 0-0.351-0.154-0.351-0.351s0.154-0.351 0.351-0.351h12.383c0.197 0 0.351 0.154 0.351 0.351s-0.154 0.351-0.344 0.351h-0z"></path>
<path fill="#faff00" style="fill: var(--color1, #faff00)" d="M8.47 20.779h-0.779c-0.576 0-1.046-0.47-1.046-1.046v-7.448c0-0.576 0.47-1.046 1.046-1.046h0.779c0.576 0 1.046 0.47 1.046 1.046v7.448c0 0.576-0.463 1.046-1.046 1.046zM7.69 11.941c-0.189 0-0.344 0.154-0.344 0.344v7.455c0 0.189 0.154 0.344 0.344 0.344h0.779c0.19 0 0.344-0.154 0.344-0.344v-7.455c0-0.189-0.154-0.344-0.344-0.344h-0.779z"></path>
<path fill="#faff00" style="fill: var(--color1, #faff00)" d="M6.3 19.41h-0.779c-0.576 0-1.046-0.47-1.046-1.046v-4.71c0-0.576 0.47-1.046 1.046-1.046h0.779c0.576 0 1.046 0.47 1.046 1.046 0 0.197-0.154 0.351-0.351 0.351s-0.351-0.155-0.351-0.351c0-0.189-0.154-0.344-0.344-0.344l-0.779 0c-0.189 0-0.344 0.154-0.344 0.344v4.71c0 0.189 0.154 0.344 0.344 0.344h0.779c0.19 0 0.344-0.154 0.344-0.344 0-0.197 0.154-0.351 0.351-0.351s0.351 0.154 0.351 0.351c0 0.576-0.47 1.046-1.046 1.046z"></path>
<path fill="#faff00" style="fill: var(--color1, #faff00)" d="M4.132 18.463h-0.779c-0.576 0-1.046-0.47-1.046-1.046v-2.815c0-0.576 0.47-1.046 1.046-1.046h0.779c0.576 0 1.046 0.47 1.046 1.046 0 0.197-0.154 0.351-0.351 0.351s-0.351-0.154-0.351-0.351c0-0.19-0.154-0.344-0.344-0.344h-0.779c-0.19 0-0.344 0.154-0.344 0.344v2.815c0 0.19 0.154 0.344 0.344 0.344h0.779c0.189 0 0.344-0.154 0.344-0.344 0-0.197 0.154-0.351 0.351-0.351s0.351 0.154 0.351 0.351c0 0.576-0.47 1.046-1.046 1.046z"></path>
<path fill="#faff00" style="fill: var(--color1, #faff00)" d="M2.657 17.585h-2.015c-0.197 0-0.351-0.154-0.351-0.351v-2.457c0-0.197 0.154-0.351 0.351-0.351h2.015c0.197 0 0.351 0.154 0.351 0.351s-0.154 0.351-0.351 0.351h-1.664v1.755h1.664c0.197 0 0.351 0.154 0.351 0.351s-0.154 0.351-0.351 0.351z"></path>
<path fill="#faff00" style="fill: var(--color1, #faff00)" d="M21.554 6.915h-12.389c-0.197 0-0.351-0.154-0.351-0.351s0.154-0.351 0.351-0.351h12.383c0.197 0 0.351 0.154 0.351 0.351s-0.154 0.351-0.344 0.351h-0zM21.554 4.458h-12.389c-0.197 0-0.351-0.154-0.351-0.351s0.154-0.351 0.351-0.351h12.383c0.197 0 0.351 0.154 0.351 0.351s-0.154 0.351-0.344 0.351h-0z"></path>
<path fill="#faff00" style="fill: var(--color1, #faff00)" d="M8.231 10.109h-1.046c-0.709 0-1.285-0.576-1.285-1.285v-6.978c0-0.709 0.576-1.285 1.285-1.285h1.046c0.709 0 1.285 0.576 1.285 1.285v6.97c0 0.716-0.576 1.291-1.285 1.291v0zM7.185 1.265c-0.323 0-0.583 0.26-0.583 0.583v6.97c0 0.323 0.26 0.583 0.583 0.583h1.046c0.323 0 0.583-0.26 0.583-0.583v-6.97c0-0.323-0.26-0.583-0.583-0.583h-1.046z"></path>
<path fill="#faff00" style="fill: var(--color1, #faff00)" d="M5.318 7.877h-1.046c-0.709 0-1.285-0.576-1.285-1.285v-2.513c0-0.709 0.576-1.285 1.285-1.285h1.046c0.709 0 1.285 0.576 1.285 1.285 0 0.197-0.154 0.351-0.351 0.351s-0.351-0.154-0.351-0.351c0-0.323-0.26-0.583-0.583-0.583l-1.046-0c-0.323 0-0.583 0.26-0.583 0.583v2.506c0 0.323 0.26 0.583 0.583 0.583h1.046c0.323 0 0.583-0.26 0.583-0.583 0-0.197 0.154-0.351 0.351-0.351s0.351 0.154 0.351 0.351c0 0.716-0.575 1.292-1.285 1.292z"></path>
<path fill="#faff00" style="fill: var(--color1, #faff00)" d="M23.534 10.109h-1.046c-0.709 0-1.285-0.576-1.285-1.285v-6.978c0-0.709 0.576-1.285 1.285-1.285h1.046c0.709 0 1.285 0.576 1.285 1.285v6.97c0 0.716-0.576 1.291-1.285 1.291v0zM22.488 1.265c-0.323 0-0.583 0.26-0.583 0.583v6.97c0 0.323 0.26 0.583 0.583 0.583h1.046c0.323 0 0.583-0.26 0.583-0.583v-6.97c0-0.323-0.26-0.583-0.583-0.583h-1.046z"></path>
<path fill="#faff00" style="fill: var(--color1, #faff00)" d="M26.454 7.877h-1.046c-0.709 0-1.285-0.576-1.285-1.285 0-0.197 0.154-0.351 0.351-0.351s0.351 0.154 0.351 0.351c0 0.323 0.26 0.583 0.583 0.583h1.046c0.323 0 0.583-0.26 0.583-0.583v-2.513c0-0.323-0.26-0.583-0.583-0.583h-1.046c-0.323 0-0.583 0.26-0.583 0.583 0 0.197-0.154 0.351-0.351 0.351s-0.351-0.154-0.351-0.351c0-0.709 0.576-1.285 1.285-1.285h1.046c0.709 0 1.285 0.576 1.285 1.285v2.506c0 0.716-0.576 1.292-1.285 1.292z"></path>
<path fill="#faff00" style="fill: var(--color1, #faff00)" d="M21.554 28.262h-12.389c-0.197 0-0.351-0.154-0.351-0.351s0.154-0.351 0.351-0.351h12.383c0.197 0 0.351 0.154 0.351 0.351s-0.154 0.351-0.344 0.351h-0zM21.554 25.805h-12.389c-0.197 0-0.351-0.154-0.351-0.351s0.154-0.351 0.351-0.351h12.383c0.197 0 0.351 0.154 0.351 0.351s-0.154 0.351-0.344 0.351h-0z"></path>
<path fill="#faff00" style="fill: var(--color1, #faff00)" d="M8.231 31.456h-1.046c-0.709 0-1.285-0.576-1.285-1.285v-6.97c0-0.709 0.576-1.285 1.285-1.285h1.046c0.709 0 1.285 0.576 1.285 1.285v6.97c0 0.709-0.576 1.285-1.285 1.285zM7.185 22.611c-0.323 0-0.583 0.26-0.583 0.583v6.97c0 0.323 0.26 0.583 0.583 0.583h1.046c0.323 0 0.583-0.26 0.583-0.583v-6.97c0-0.323-0.26-0.583-0.583-0.583h-1.046z"></path>
<path fill="#faff00" style="fill: var(--color1, #faff00)" d="M5.318 29.224h-1.046c-0.709 0-1.285-0.576-1.285-1.285v-2.506c0-0.709 0.576-1.285 1.285-1.285h1.046c0.709 0 1.285 0.576 1.285 1.285 0 0.197-0.154 0.351-0.351 0.351s-0.351-0.154-0.351-0.351c0-0.323-0.26-0.583-0.583-0.583h-1.046c-0.323 0-0.583 0.26-0.583 0.583v2.506c0 0.323 0.26 0.583 0.583 0.583h1.046c0.323 0 0.583-0.26 0.583-0.583 0-0.197 0.154-0.351 0.351-0.351s0.351 0.154 0.351 0.351c0 0.709-0.575 1.285-1.285 1.285z"></path>
<path fill="#faff00" style="fill: var(--color1, #faff00)" d="M23.534 31.456h-1.046c-0.709 0-1.285-0.576-1.285-1.285v-6.97c0-0.709 0.576-1.285 1.285-1.285h1.046c0.709 0 1.285 0.576 1.285 1.285v6.97c0 0.709-0.576 1.285-1.285 1.285zM22.488 22.611c-0.323 0-0.583 0.26-0.583 0.583v6.97c0 0.323 0.26 0.583 0.583 0.583h1.046c0.323 0 0.583-0.26 0.583-0.583v-6.97c0-0.323-0.26-0.583-0.583-0.583h-1.046z"></path>
<path fill="#faff00" style="fill: var(--color1, #faff00)" d="M26.454 29.224h-1.046c-0.709 0-1.285-0.576-1.285-1.285 0-0.197 0.154-0.351 0.351-0.351s0.351 0.154 0.351 0.351c0 0.323 0.26 0.583 0.583 0.583h1.046c0.323 0 0.583-0.26 0.583-0.583v-2.506c0-0.323-0.26-0.583-0.583-0.583h-1.046c-0.323 0-0.583 0.26-0.583 0.583 0 0.197-0.154 0.351-0.351 0.351s-0.351-0.154-0.351-0.351c0-0.709 0.576-1.285 1.285-1.285h1.046c0.709 0 1.285 0.576 1.285 1.285v2.506c0 0.709-0.576 1.285-1.285 1.285z"></path>
<path fill="#faff00" style="fill: var(--color1, #faff00)" d="M23.028 20.779h-0.779c-0.576 0-1.046-0.47-1.046-1.046v-7.448c0-0.576 0.47-1.046 1.046-1.046h0.779c0.576 0 1.046 0.47 1.046 1.046v7.448c0 0.576-0.47 1.046-1.046 1.046zM22.249 11.941c-0.189 0-0.344 0.154-0.344 0.344v7.455c0 0.189 0.154 0.344 0.344 0.344h0.779c0.19 0 0.344-0.154 0.344-0.344v-7.455c0-0.189-0.154-0.344-0.344-0.344h-0.779z"></path>
<path fill="#faff00" style="fill: var(--color1, #faff00)" d="M25.197 19.41h-0.779c-0.576 0-1.046-0.47-1.046-1.046 0-0.197 0.154-0.351 0.351-0.351s0.351 0.154 0.351 0.351c0 0.19 0.154 0.344 0.344 0.344h0.779c0.19 0 0.344-0.154 0.344-0.344v-4.71c0-0.189-0.154-0.344-0.344-0.344h-0.779c-0.189 0-0.344 0.155-0.344 0.344 0 0.197-0.154 0.351-0.351 0.351s-0.351-0.155-0.351-0.351c0-0.576 0.47-1.046 1.046-1.046h0.779c0.576 0 1.046 0.47 1.046 1.046v4.71c0 0.576-0.47 1.046-1.046 1.046z"></path>
<path fill="#faff00" style="fill: var(--color1, #faff00)" d="M27.366 18.463h-0.779c-0.576 0-1.046-0.47-1.046-1.046 0-0.197 0.154-0.351 0.351-0.351s0.351 0.154 0.351 0.351c0 0.19 0.154 0.344 0.344 0.344h0.779c0.19 0 0.344-0.154 0.344-0.344v-2.815c0-0.19-0.154-0.344-0.344-0.344h-0.779c-0.189 0-0.344 0.154-0.344 0.344 0 0.197-0.154 0.351-0.351 0.351s-0.351-0.154-0.351-0.351c0-0.576 0.47-1.046 1.046-1.046h0.779c0.576 0 1.046 0.47 1.046 1.046v2.815c0 0.576-0.47 1.046-1.046 1.046z"></path>
<path fill="#faff00" style="fill: var(--color1, #faff00)" d="M30.075 17.585h-2.015c-0.197 0-0.351-0.154-0.351-0.351s0.154-0.351 0.351-0.351h1.664v-1.755h-1.664c-0.197 0-0.351-0.154-0.351-0.351s0.154-0.351 0.351-0.351h2.015c0.197 0 0.351 0.154 0.351 0.351v2.457c0 0.197-0.154 0.351-0.351 0.351z"></path>
</symbol>

<symbol id="icon-icon_zones" viewBox="0 0 32 32">
<path fill="#faff00" style="fill: var(--color1, #faff00)" d="M4.378 31.687h-0.006c-1.747 0-3.168-1.421-3.168-3.168v-10.113c0-0.365 0.295-0.66 0.66-0.66h5.021c0.365 0 0.66 0.296 0.66 0.66v10.114c0 1.746-1.421 3.167-3.168 3.167v-0zM2.524 19.066v9.453c0 1.018 0.829 1.847 1.848 1.847h0.006c1.019 0 1.847-0.829 1.847-1.847v-9.453l-3.701-0z"></path>
<path fill="#faff00" style="fill: var(--color1, #faff00)" d="M5.893 19.066h-3.038c-0.365 0-0.66-0.296-0.66-0.66v-2.047c0-0.728 0.592-1.32 1.32-1.32h1.718c0.728 0 1.32 0.592 1.32 1.32v2.047c0 0.364-0.295 0.66-0.66 0.66zM3.515 17.746h1.718v-1.386h-1.718v1.386z"></path>
<path fill="#faff00" style="fill: var(--color1, #faff00)" d="M28.631 19.066h-3.038c-0.365 0-0.66-0.296-0.66-0.66v-2.047c0-0.728 0.592-1.32 1.32-1.32h1.718c0.728 0 1.32 0.592 1.32 1.32v2.047c0 0.364-0.296 0.66-0.66 0.66zM26.253 17.746h1.718v-1.386h-1.718v1.386z"></path>
<path fill="#faff00" style="fill: var(--color1, #faff00)" d="M27.116 31.687h-0.006c-1.747 0-3.168-1.421-3.168-3.168v-10.113c0-0.365 0.296-0.66 0.66-0.66h5.021c0.365 0 0.66 0.296 0.66 0.66v10.114c0 1.746-1.421 3.167-3.167 3.167l-0-0zM25.262 19.066v9.453c0 1.018 0.829 1.847 1.847 1.847h0.006c1.019 0 1.847-0.829 1.847-1.847l-0-9.453-3.701-0z"></path>
<path fill="#faff00" style="fill: var(--color1, #faff00)" d="M8.088 19.066h-7.428c-0.365 0-0.66-0.296-0.66-0.66s0.295-0.66 0.66-0.66h7.428c0.365 0 0.66 0.295 0.66 0.66s-0.296 0.66-0.66 0.66z"></path>
<path fill="#faff00" style="fill: var(--color1, #faff00)" d="M30.826 19.066h-7.428c-0.365 0-0.66-0.296-0.66-0.66s0.296-0.66 0.66-0.66h7.428c0.365 0 0.66 0.295 0.66 0.66s-0.295 0.66-0.66 0.66h-0z"></path>
<path fill="#faff00" style="fill: var(--color1, #faff00)" d="M15.928 22.983c-1.942 0-3.522-1.58-3.522-3.522v-14.455c0-2.032-1.654-3.686-3.686-3.686s-3.686 1.653-3.686 3.686v10.693c0 0.365-0.295 0.66-0.66 0.66s-0.66-0.296-0.66-0.66v-10.693c0-2.76 2.246-5.006 5.006-5.006s5.006 2.246 5.006 5.006v14.455c0 1.214 0.988 2.202 2.201 2.202s2.202-0.988 2.202-2.202v-8.647c0-2.659 2.163-4.821 4.822-4.821s4.822 2.163 4.822 4.821l-0 4.886c0 0.365-0.295 0.66-0.66 0.66s-0.66-0.296-0.66-0.66v-4.886c0-1.93-1.571-3.501-3.501-3.501s-3.501 1.571-3.501 3.501v8.647c0 1.942-1.58 3.522-3.522 3.522l0-0z"></path>
<path fill="#faff00" style="fill: var(--color1, #faff00)" d="M6.884 25.377h-5.021c-0.365 0-0.66-0.296-0.66-0.66s0.295-0.66 0.66-0.66h5.021c0.365 0 0.66 0.296 0.66 0.66s-0.296 0.66-0.66 0.66z"></path>
<path fill="#faff00" style="fill: var(--color1, #faff00)" d="M6.884 22.479h-5.021c-0.365 0-0.66-0.296-0.66-0.66s0.295-0.66 0.66-0.66h5.021c0.365 0 0.66 0.295 0.66 0.66s-0.296 0.66-0.66 0.66z"></path>
<path fill="#faff00" style="fill: var(--color1, #faff00)" d="M6.884 28.274h-5.021c-0.365 0-0.66-0.296-0.66-0.66s0.295-0.66 0.66-0.66h5.021c0.365 0 0.66 0.296 0.66 0.66s-0.296 0.66-0.66 0.66z"></path>
<path fill="#faff00" style="fill: var(--color1, #faff00)" d="M29.623 25.377h-5.021c-0.365 0-0.66-0.296-0.66-0.66s0.296-0.66 0.66-0.66h5.021c0.365 0 0.66 0.296 0.66 0.66s-0.296 0.66-0.66 0.66z"></path>
<path fill="#faff00" style="fill: var(--color1, #faff00)" d="M29.623 22.479h-5.021c-0.365 0-0.66-0.296-0.66-0.66s0.296-0.66 0.66-0.66h5.021c0.365 0 0.66 0.295 0.66 0.66s-0.296 0.66-0.66 0.66z"></path>
<path fill="#faff00" style="fill: var(--color1, #faff00)" d="M29.623 28.274h-5.021c-0.365 0-0.66-0.296-0.66-0.66s0.296-0.66 0.66-0.66h5.021c0.365 0 0.66 0.296 0.66 0.66s-0.296 0.66-0.66 0.66z"></path>
</symbol>

<symbol id="icon-icon_clock" viewBox="0 0 33 32">
<path fill="#faff00" style="fill: var(--color1, #faff00)" d="M32.007 15.816c0 4.166-1.655 8.162-4.601 11.107s-6.941 4.601-11.107 4.601c-4.166 0-8.161-1.655-11.107-4.601s-4.601-6.941-4.601-11.107 1.655-8.162 4.601-11.107c2.946-2.946 6.941-4.601 11.107-4.601 0.271 0 0.491 0.22 0.491 0.491s-0.22 0.491-0.491 0.491c-3.334-0.001-6.569 1.13-9.178 3.206s-4.435 4.977-5.181 8.226c-0.746 3.249-0.368 6.656 1.072 9.662s3.858 5.435 6.858 6.89c3 1.454 6.405 1.848 9.657 1.116s6.161-2.545 8.249-5.144c2.088-2.599 3.233-5.829 3.248-9.163s-1.103-6.574-3.168-9.191l-0.129 1.294c-0.025 0.251-0.236 0.442-0.488 0.442-0.016 0-0.033 0-0.049-0.003-0.27-0.027-0.467-0.268-0.44-0.537l0.245-2.454h0c0.027-0.27 0.267-0.466 0.537-0.44l2.452 0.245c0.27 0.027 0.467 0.268 0.439 0.538s-0.268 0.466-0.538 0.439l-1.255-0.125c2.189 2.769 3.378 6.196 3.375 9.725l0-0.001zM16.299 4.042c3.123 0 6.117 1.24 8.325 3.449s3.449 5.203 3.449 8.325-1.24 6.117-3.449 8.325c-2.208 2.208-5.203 3.449-8.325 3.449s-6.117-1.24-8.325-3.449c-2.208-2.208-3.449-5.203-3.449-8.325 0.003-3.122 1.245-6.114 3.452-8.322s5.2-3.449 8.322-3.452l-0 0zM22.327 9.096l1.244-1.247c-1.86-1.705-4.261-2.701-6.782-2.814v1.767c0 0.271-0.22 0.491-0.491 0.491s-0.491-0.22-0.491-0.491v-1.767c-2.521 0.113-4.921 1.109-6.782 2.814l1.247 1.247c0.192 0.192 0.192 0.503 0 0.694s-0.503 0.192-0.694 0l-1.247-1.247c-1.705 1.86-2.701 4.261-2.814 6.782h1.767c0.271 0 0.491 0.22 0.491 0.491s-0.22 0.491-0.491 0.491h-1.767c0.113 2.521 1.109 4.922 2.814 6.782l1.247-1.244c0.092-0.095 0.217-0.149 0.349-0.15s0.258 0.051 0.351 0.144c0.093 0.093 0.145 0.22 0.144 0.352s-0.055 0.257-0.15 0.349l-1.246 1.244c1.86 1.705 4.261 2.701 6.781 2.814v-1.767c0-0.271 0.22-0.491 0.491-0.491s0.491 0.22 0.491 0.491v1.767c2.521-0.113 4.921-1.109 6.782-2.814l-1.243-1.244c-0.192-0.192-0.192-0.503 0-0.694s0.503-0.192 0.694 0l1.243 1.244c1.705-1.86 2.701-4.261 2.814-6.782h-1.767c-0.271 0-0.491-0.22-0.491-0.491s0.22-0.491 0.491-0.491h1.767c-0.113-2.521-1.109-4.921-2.814-6.781l-1.243 1.246c-0.193 0.186-0.499 0.184-0.688-0.006s-0.192-0.495-0.006-0.688l0-0zM19.829 18.651v0c0.192 0.192 0.192 0.502 0 0.694s-0.503 0.192-0.694-0l-2.214-2.214c-0.36 0.171-0.775 0.186-1.147 0.042s-0.669-0.433-0.821-0.801c-0.152-0.368-0.147-0.783 0.014-1.148s0.466-0.646 0.841-0.78v-4.795c0-0.271 0.22-0.491 0.491-0.491s0.491 0.22 0.491 0.491v4.795c0.387 0.138 0.698 0.434 0.855 0.813s0.147 0.808-0.029 1.18l2.214 2.214zM16.299 16.29c0.192 0 0.365-0.116 0.438-0.293s0.033-0.381-0.103-0.517c-0.136-0.136-0.34-0.176-0.517-0.103s-0.293 0.246-0.293 0.438c0 0.262 0.213 0.474 0.475 0.475z"></path>
</symbol>

    </defs>
</svg>
