<svg aria-hidden="true" style="position:absolute;width:0;height:0;overflow:hidden" xmlns="http://www.w3.org/2000/svg">
    <defs>

        <symbol id="icon-icon_line" viewBox="0 0 26 32">
        <path fill="#faff00" style="fill: var(--color1, #faff00)" d="M8.208 29.633l2.725-2.794-3.228-3.31-2.725 2.794 3.228 3.31zM9.51 26.839l-1.302 1.335-1.805-1.851 1.302-1.335 1.805 1.851z"></path>
        <path fill="#faff00" style="fill: var(--color1, #faff00)" d="M25.53 4.129l-4.026-4.128-1.42-0.001-19.93 19.911v0.948l0.798 0.818-0.798 0.819v1.449l7.332 8.055h1.434l4.322-4.432v-1.446l-4.35-4.906 16.639-17.088zM1.161 20.432v-0.085l2.806-2.804 2.375 2.435 0.712-0.73-2.365-2.425 0.809-0.808 1.349 1.383 0.712-0.73-1.339-1.373 0.809-0.808 2.336 2.395 0.712-0.73-2.326-2.385 0.809-0.808 1.309 1.342 0.712-0.73-1.3-1.333 0.809-0.808 2.296 2.355 0.712-0.73-2.287-2.345 0.809-0.808 1.27 1.302 0.712-0.73-1.26-1.292 0.809-0.808 2.257 2.314 0.712-0.73-2.248-2.305 0.809-0.808 1.231 1.262 0.712-0.73-1.221-1.252 0.809-0.808 2.218 2.274 0.712-0.73-2.212-2.27 0.809-0.808 1.191 1.222 0.712-0.73-1.182-1.212 0.809-0.808 2.179 2.234 0.712-0.73-2.169-2.224 0.507-0.507h0.595l3.019 3.097-16.087 16.521-5.537-0.542-0.819 0.839-0.503-0.517zM1.161 22.923l1.698-1.741 4.239 0.415-3.982 4.089-1.955-2.148v-0.615zM12.235 26.522v0.619l-3.732 3.826h-0.579l-4.12-4.526 4.376-4.494 4.055 4.575z"></path>
        </symbol>

        <symbol id="icon-icon_eq" viewBox="0 0 31 32">
<path fill="#faff00" style="fill: var(--color1, #faff00)" d="M21.554 17.585h-12.389c-0.197 0-0.351-0.154-0.351-0.351s0.154-0.351 0.351-0.351h12.383c0.197 0 0.351 0.154 0.351 0.351s-0.154 0.351-0.344 0.351h-0zM21.554 15.128h-12.389c-0.197 0-0.351-0.154-0.351-0.351s0.154-0.351 0.351-0.351h12.383c0.197 0 0.351 0.154 0.351 0.351s-0.154 0.351-0.344 0.351h-0z"></path>
<path fill="#faff00" style="fill: var(--color1, #faff00)" d="M8.47 20.779h-0.779c-0.576 0-1.046-0.47-1.046-1.046v-7.448c0-0.576 0.47-1.046 1.046-1.046h0.779c0.576 0 1.046 0.47 1.046 1.046v7.448c0 0.576-0.463 1.046-1.046 1.046zM7.69 11.941c-0.189 0-0.344 0.154-0.344 0.344v7.455c0 0.189 0.154 0.344 0.344 0.344h0.779c0.19 0 0.344-0.154 0.344-0.344v-7.455c0-0.189-0.154-0.344-0.344-0.344h-0.779z"></path>
<path fill="#faff00" style="fill: var(--color1, #faff00)" d="M6.3 19.41h-0.779c-0.576 0-1.046-0.47-1.046-1.046v-4.71c0-0.576 0.47-1.046 1.046-1.046h0.779c0.576 0 1.046 0.47 1.046 1.046 0 0.197-0.154 0.351-0.351 0.351s-0.351-0.155-0.351-0.351c0-0.189-0.154-0.344-0.344-0.344l-0.779 0c-0.189 0-0.344 0.154-0.344 0.344v4.71c0 0.189 0.154 0.344 0.344 0.344h0.779c0.19 0 0.344-0.154 0.344-0.344 0-0.197 0.154-0.351 0.351-0.351s0.351 0.154 0.351 0.351c0 0.576-0.47 1.046-1.046 1.046z"></path>
<path fill="#faff00" style="fill: var(--color1, #faff00)" d="M4.132 18.463h-0.779c-0.576 0-1.046-0.47-1.046-1.046v-2.815c0-0.576 0.47-1.046 1.046-1.046h0.779c0.576 0 1.046 0.47 1.046 1.046 0 0.197-0.154 0.351-0.351 0.351s-0.351-0.154-0.351-0.351c0-0.19-0.154-0.344-0.344-0.344h-0.779c-0.19 0-0.344 0.154-0.344 0.344v2.815c0 0.19 0.154 0.344 0.344 0.344h0.779c0.189 0 0.344-0.154 0.344-0.344 0-0.197 0.154-0.351 0.351-0.351s0.351 0.154 0.351 0.351c0 0.576-0.47 1.046-1.046 1.046z"></path>
<path fill="#faff00" style="fill: var(--color1, #faff00)" d="M2.657 17.585h-2.015c-0.197 0-0.351-0.154-0.351-0.351v-2.457c0-0.197 0.154-0.351 0.351-0.351h2.015c0.197 0 0.351 0.154 0.351 0.351s-0.154 0.351-0.351 0.351h-1.664v1.755h1.664c0.197 0 0.351 0.154 0.351 0.351s-0.154 0.351-0.351 0.351z"></path>
<path fill="#faff00" style="fill: var(--color1, #faff00)" d="M21.554 6.915h-12.389c-0.197 0-0.351-0.154-0.351-0.351s0.154-0.351 0.351-0.351h12.383c0.197 0 0.351 0.154 0.351 0.351s-0.154 0.351-0.344 0.351h-0zM21.554 4.458h-12.389c-0.197 0-0.351-0.154-0.351-0.351s0.154-0.351 0.351-0.351h12.383c0.197 0 0.351 0.154 0.351 0.351s-0.154 0.351-0.344 0.351h-0z"></path>
<path fill="#faff00" style="fill: var(--color1, #faff00)" d="M8.231 10.109h-1.046c-0.709 0-1.285-0.576-1.285-1.285v-6.978c0-0.709 0.576-1.285 1.285-1.285h1.046c0.709 0 1.285 0.576 1.285 1.285v6.97c0 0.716-0.576 1.291-1.285 1.291v0zM7.185 1.265c-0.323 0-0.583 0.26-0.583 0.583v6.97c0 0.323 0.26 0.583 0.583 0.583h1.046c0.323 0 0.583-0.26 0.583-0.583v-6.97c0-0.323-0.26-0.583-0.583-0.583h-1.046z"></path>
<path fill="#faff00" style="fill: var(--color1, #faff00)" d="M5.318 7.877h-1.046c-0.709 0-1.285-0.576-1.285-1.285v-2.513c0-0.709 0.576-1.285 1.285-1.285h1.046c0.709 0 1.285 0.576 1.285 1.285 0 0.197-0.154 0.351-0.351 0.351s-0.351-0.154-0.351-0.351c0-0.323-0.26-0.583-0.583-0.583l-1.046-0c-0.323 0-0.583 0.26-0.583 0.583v2.506c0 0.323 0.26 0.583 0.583 0.583h1.046c0.323 0 0.583-0.26 0.583-0.583 0-0.197 0.154-0.351 0.351-0.351s0.351 0.154 0.351 0.351c0 0.716-0.575 1.292-1.285 1.292z"></path>
<path fill="#faff00" style="fill: var(--color1, #faff00)" d="M23.534 10.109h-1.046c-0.709 0-1.285-0.576-1.285-1.285v-6.978c0-0.709 0.576-1.285 1.285-1.285h1.046c0.709 0 1.285 0.576 1.285 1.285v6.97c0 0.716-0.576 1.291-1.285 1.291v0zM22.488 1.265c-0.323 0-0.583 0.26-0.583 0.583v6.97c0 0.323 0.26 0.583 0.583 0.583h1.046c0.323 0 0.583-0.26 0.583-0.583v-6.97c0-0.323-0.26-0.583-0.583-0.583h-1.046z"></path>
<path fill="#faff00" style="fill: var(--color1, #faff00)" d="M26.454 7.877h-1.046c-0.709 0-1.285-0.576-1.285-1.285 0-0.197 0.154-0.351 0.351-0.351s0.351 0.154 0.351 0.351c0 0.323 0.26 0.583 0.583 0.583h1.046c0.323 0 0.583-0.26 0.583-0.583v-2.513c0-0.323-0.26-0.583-0.583-0.583h-1.046c-0.323 0-0.583 0.26-0.583 0.583 0 0.197-0.154 0.351-0.351 0.351s-0.351-0.154-0.351-0.351c0-0.709 0.576-1.285 1.285-1.285h1.046c0.709 0 1.285 0.576 1.285 1.285v2.506c0 0.716-0.576 1.292-1.285 1.292z"></path>
<path fill="#faff00" style="fill: var(--color1, #faff00)" d="M21.554 28.262h-12.389c-0.197 0-0.351-0.154-0.351-0.351s0.154-0.351 0.351-0.351h12.383c0.197 0 0.351 0.154 0.351 0.351s-0.154 0.351-0.344 0.351h-0zM21.554 25.805h-12.389c-0.197 0-0.351-0.154-0.351-0.351s0.154-0.351 0.351-0.351h12.383c0.197 0 0.351 0.154 0.351 0.351s-0.154 0.351-0.344 0.351h-0z"></path>
<path fill="#faff00" style="fill: var(--color1, #faff00)" d="M8.231 31.456h-1.046c-0.709 0-1.285-0.576-1.285-1.285v-6.97c0-0.709 0.576-1.285 1.285-1.285h1.046c0.709 0 1.285 0.576 1.285 1.285v6.97c0 0.709-0.576 1.285-1.285 1.285zM7.185 22.611c-0.323 0-0.583 0.26-0.583 0.583v6.97c0 0.323 0.26 0.583 0.583 0.583h1.046c0.323 0 0.583-0.26 0.583-0.583v-6.97c0-0.323-0.26-0.583-0.583-0.583h-1.046z"></path>
<path fill="#faff00" style="fill: var(--color1, #faff00)" d="M5.318 29.224h-1.046c-0.709 0-1.285-0.576-1.285-1.285v-2.506c0-0.709 0.576-1.285 1.285-1.285h1.046c0.709 0 1.285 0.576 1.285 1.285 0 0.197-0.154 0.351-0.351 0.351s-0.351-0.154-0.351-0.351c0-0.323-0.26-0.583-0.583-0.583h-1.046c-0.323 0-0.583 0.26-0.583 0.583v2.506c0 0.323 0.26 0.583 0.583 0.583h1.046c0.323 0 0.583-0.26 0.583-0.583 0-0.197 0.154-0.351 0.351-0.351s0.351 0.154 0.351 0.351c0 0.709-0.575 1.285-1.285 1.285z"></path>
<path fill="#faff00" style="fill: var(--color1, #faff00)" d="M23.534 31.456h-1.046c-0.709 0-1.285-0.576-1.285-1.285v-6.97c0-0.709 0.576-1.285 1.285-1.285h1.046c0.709 0 1.285 0.576 1.285 1.285v6.97c0 0.709-0.576 1.285-1.285 1.285zM22.488 22.611c-0.323 0-0.583 0.26-0.583 0.583v6.97c0 0.323 0.26 0.583 0.583 0.583h1.046c0.323 0 0.583-0.26 0.583-0.583v-6.97c0-0.323-0.26-0.583-0.583-0.583h-1.046z"></path>
<path fill="#faff00" style="fill: var(--color1, #faff00)" d="M26.454 29.224h-1.046c-0.709 0-1.285-0.576-1.285-1.285 0-0.197 0.154-0.351 0.351-0.351s0.351 0.154 0.351 0.351c0 0.323 0.26 0.583 0.583 0.583h1.046c0.323 0 0.583-0.26 0.583-0.583v-2.506c0-0.323-0.26-0.583-0.583-0.583h-1.046c-0.323 0-0.583 0.26-0.583 0.583 0 0.197-0.154 0.351-0.351 0.351s-0.351-0.154-0.351-0.351c0-0.709 0.576-1.285 1.285-1.285h1.046c0.709 0 1.285 0.576 1.285 1.285v2.506c0 0.709-0.576 1.285-1.285 1.285z"></path>
<path fill="#faff00" style="fill: var(--color1, #faff00)" d="M23.028 20.779h-0.779c-0.576 0-1.046-0.47-1.046-1.046v-7.448c0-0.576 0.47-1.046 1.046-1.046h0.779c0.576 0 1.046 0.47 1.046 1.046v7.448c0 0.576-0.47 1.046-1.046 1.046zM22.249 11.941c-0.189 0-0.344 0.154-0.344 0.344v7.455c0 0.189 0.154 0.344 0.344 0.344h0.779c0.19 0 0.344-0.154 0.344-0.344v-7.455c0-0.189-0.154-0.344-0.344-0.344h-0.779z"></path>
<path fill="#faff00" style="fill: var(--color1, #faff00)" d="M25.197 19.41h-0.779c-0.576 0-1.046-0.47-1.046-1.046 0-0.197 0.154-0.351 0.351-0.351s0.351 0.154 0.351 0.351c0 0.19 0.154 0.344 0.344 0.344h0.779c0.19 0 0.344-0.154 0.344-0.344v-4.71c0-0.189-0.154-0.344-0.344-0.344h-0.779c-0.189 0-0.344 0.155-0.344 0.344 0 0.197-0.154 0.351-0.351 0.351s-0.351-0.155-0.351-0.351c0-0.576 0.47-1.046 1.046-1.046h0.779c0.576 0 1.046 0.47 1.046 1.046v4.71c0 0.576-0.47 1.046-1.046 1.046z"></path>
<path fill="#faff00" style="fill: var(--color1, #faff00)" d="M27.366 18.463h-0.779c-0.576 0-1.046-0.47-1.046-1.046 0-0.197 0.154-0.351 0.351-0.351s0.351 0.154 0.351 0.351c0 0.19 0.154 0.344 0.344 0.344h0.779c0.19 0 0.344-0.154 0.344-0.344v-2.815c0-0.19-0.154-0.344-0.344-0.344h-0.779c-0.189 0-0.344 0.154-0.344 0.344 0 0.197-0.154 0.351-0.351 0.351s-0.351-0.154-0.351-0.351c0-0.576 0.47-1.046 1.046-1.046h0.779c0.576 0 1.046 0.47 1.046 1.046v2.815c0 0.576-0.47 1.046-1.046 1.046z"></path>
<path fill="#faff00" style="fill: var(--color1, #faff00)" d="M30.075 17.585h-2.015c-0.197 0-0.351-0.154-0.351-0.351s0.154-0.351 0.351-0.351h1.664v-1.755h-1.664c-0.197 0-0.351-0.154-0.351-0.351s0.154-0.351 0.351-0.351h2.015c0.197 0 0.351 0.154 0.351 0.351v2.457c0 0.197-0.154 0.351-0.351 0.351z"></path>
</symbol>

<symbol id="icon-icon_zones" viewBox="0 0 32 32">
<path fill="#faff00" style="fill: var(--color1, #faff00)" d="M4.378 31.687h-0.006c-1.747 0-3.168-1.421-3.168-3.168v-10.113c0-0.365 0.295-0.66 0.66-0.66h5.021c0.365 0 0.66 0.296 0.66 0.66v10.114c0 1.746-1.421 3.167-3.168 3.167v-0zM2.524 19.066v9.453c0 1.018 0.829 1.847 1.848 1.847h0.006c1.019 0 1.847-0.829 1.847-1.847v-9.453l-3.701-0z"></path>
<path fill="#faff00" style="fill: var(--color1, #faff00)" d="M5.893 19.066h-3.038c-0.365 0-0.66-0.296-0.66-0.66v-2.047c0-0.728 0.592-1.32 1.32-1.32h1.718c0.728 0 1.32 0.592 1.32 1.32v2.047c0 0.364-0.295 0.66-0.66 0.66zM3.515 17.746h1.718v-1.386h-1.718v1.386z"></path>
<path fill="#faff00" style="fill: var(--color1, #faff00)" d="M28.631 19.066h-3.038c-0.365 0-0.66-0.296-0.66-0.66v-2.047c0-0.728 0.592-1.32 1.32-1.32h1.718c0.728 0 1.32 0.592 1.32 1.32v2.047c0 0.364-0.296 0.66-0.66 0.66zM26.253 17.746h1.718v-1.386h-1.718v1.386z"></path>
<path fill="#faff00" style="fill: var(--color1, #faff00)" d="M27.116 31.687h-0.006c-1.747 0-3.168-1.421-3.168-3.168v-10.113c0-0.365 0.296-0.66 0.66-0.66h5.021c0.365 0 0.66 0.296 0.66 0.66v10.114c0 1.746-1.421 3.167-3.167 3.167l-0-0zM25.262 19.066v9.453c0 1.018 0.829 1.847 1.847 1.847h0.006c1.019 0 1.847-0.829 1.847-1.847l-0-9.453-3.701-0z"></path>
<path fill="#faff00" style="fill: var(--color1, #faff00)" d="M8.088 19.066h-7.428c-0.365 0-0.66-0.296-0.66-0.66s0.295-0.66 0.66-0.66h7.428c0.365 0 0.66 0.295 0.66 0.66s-0.296 0.66-0.66 0.66z"></path>
<path fill="#faff00" style="fill: var(--color1, #faff00)" d="M30.826 19.066h-7.428c-0.365 0-0.66-0.296-0.66-0.66s0.296-0.66 0.66-0.66h7.428c0.365 0 0.66 0.295 0.66 0.66s-0.295 0.66-0.66 0.66h-0z"></path>
<path fill="#faff00" style="fill: var(--color1, #faff00)" d="M15.928 22.983c-1.942 0-3.522-1.58-3.522-3.522v-14.455c0-2.032-1.654-3.686-3.686-3.686s-3.686 1.653-3.686 3.686v10.693c0 0.365-0.295 0.66-0.66 0.66s-0.66-0.296-0.66-0.66v-10.693c0-2.76 2.246-5.006 5.006-5.006s5.006 2.246 5.006 5.006v14.455c0 1.214 0.988 2.202 2.201 2.202s2.202-0.988 2.202-2.202v-8.647c0-2.659 2.163-4.821 4.822-4.821s4.822 2.163 4.822 4.821l-0 4.886c0 0.365-0.295 0.66-0.66 0.66s-0.66-0.296-0.66-0.66v-4.886c0-1.93-1.571-3.501-3.501-3.501s-3.501 1.571-3.501 3.501v8.647c0 1.942-1.58 3.522-3.522 3.522l0-0z"></path>
<path fill="#faff00" style="fill: var(--color1, #faff00)" d="M6.884 25.377h-5.021c-0.365 0-0.66-0.296-0.66-0.66s0.295-0.66 0.66-0.66h5.021c0.365 0 0.66 0.296 0.66 0.66s-0.296 0.66-0.66 0.66z"></path>
<path fill="#faff00" style="fill: var(--color1, #faff00)" d="M6.884 22.479h-5.021c-0.365 0-0.66-0.296-0.66-0.66s0.295-0.66 0.66-0.66h5.021c0.365 0 0.66 0.295 0.66 0.66s-0.296 0.66-0.66 0.66z"></path>
<path fill="#faff00" style="fill: var(--color1, #faff00)" d="M6.884 28.274h-5.021c-0.365 0-0.66-0.296-0.66-0.66s0.295-0.66 0.66-0.66h5.021c0.365 0 0.66 0.296 0.66 0.66s-0.296 0.66-0.66 0.66z"></path>
<path fill="#faff00" style="fill: var(--color1, #faff00)" d="M29.623 25.377h-5.021c-0.365 0-0.66-0.296-0.66-0.66s0.296-0.66 0.66-0.66h5.021c0.365 0 0.66 0.296 0.66 0.66s-0.296 0.66-0.66 0.66z"></path>
<path fill="#faff00" style="fill: var(--color1, #faff00)" d="M29.623 22.479h-5.021c-0.365 0-0.66-0.296-0.66-0.66s0.296-0.66 0.66-0.66h5.021c0.365 0 0.66 0.295 0.66 0.66s-0.296 0.66-0.66 0.66z"></path>
<path fill="#faff00" style="fill: var(--color1, #faff00)" d="M29.623 28.274h-5.021c-0.365 0-0.66-0.296-0.66-0.66s0.296-0.66 0.66-0.66h5.021c0.365 0 0.66 0.296 0.66 0.66s-0.296 0.66-0.66 0.66z"></path>
</symbol>

<symbol id="icon-icon_clock" viewBox="0 0 33 32">
<path fill="#faff00" style="fill: var(--color1, #faff00)" d="M32.007 15.816c0 4.166-1.655 8.162-4.601 11.107s-6.941 4.601-11.107 4.601c-4.166 0-8.161-1.655-11.107-4.601s-4.601-6.941-4.601-11.107 1.655-8.162 4.601-11.107c2.946-2.946 6.941-4.601 11.107-4.601 0.271 0 0.491 0.22 0.491 0.491s-0.22 0.491-0.491 0.491c-3.334-0.001-6.569 1.13-9.178 3.206s-4.435 4.977-5.181 8.226c-0.746 3.249-0.368 6.656 1.072 9.662s3.858 5.435 6.858 6.89c3 1.454 6.405 1.848 9.657 1.116s6.161-2.545 8.249-5.144c2.088-2.599 3.233-5.829 3.248-9.163s-1.103-6.574-3.168-9.191l-0.129 1.294c-0.025 0.251-0.236 0.442-0.488 0.442-0.016 0-0.033 0-0.049-0.003-0.27-0.027-0.467-0.268-0.44-0.537l0.245-2.454h0c0.027-0.27 0.267-0.466 0.537-0.44l2.452 0.245c0.27 0.027 0.467 0.268 0.439 0.538s-0.268 0.466-0.538 0.439l-1.255-0.125c2.189 2.769 3.378 6.196 3.375 9.725l0-0.001zM16.299 4.042c3.123 0 6.117 1.24 8.325 3.449s3.449 5.203 3.449 8.325-1.24 6.117-3.449 8.325c-2.208 2.208-5.203 3.449-8.325 3.449s-6.117-1.24-8.325-3.449c-2.208-2.208-3.449-5.203-3.449-8.325 0.003-3.122 1.245-6.114 3.452-8.322s5.2-3.449 8.322-3.452l-0 0zM22.327 9.096l1.244-1.247c-1.86-1.705-4.261-2.701-6.782-2.814v1.767c0 0.271-0.22 0.491-0.491 0.491s-0.491-0.22-0.491-0.491v-1.767c-2.521 0.113-4.921 1.109-6.782 2.814l1.247 1.247c0.192 0.192 0.192 0.503 0 0.694s-0.503 0.192-0.694 0l-1.247-1.247c-1.705 1.86-2.701 4.261-2.814 6.782h1.767c0.271 0 0.491 0.22 0.491 0.491s-0.22 0.491-0.491 0.491h-1.767c0.113 2.521 1.109 4.922 2.814 6.782l1.247-1.244c0.092-0.095 0.217-0.149 0.349-0.15s0.258 0.051 0.351 0.144c0.093 0.093 0.145 0.22 0.144 0.352s-0.055 0.257-0.15 0.349l-1.246 1.244c1.86 1.705 4.261 2.701 6.781 2.814v-1.767c0-0.271 0.22-0.491 0.491-0.491s0.491 0.22 0.491 0.491v1.767c2.521-0.113 4.921-1.109 6.782-2.814l-1.243-1.244c-0.192-0.192-0.192-0.503 0-0.694s0.503-0.192 0.694 0l1.243 1.244c1.705-1.86 2.701-4.261 2.814-6.782h-1.767c-0.271 0-0.491-0.22-0.491-0.491s0.22-0.491 0.491-0.491h1.767c-0.113-2.521-1.109-4.921-2.814-6.781l-1.243 1.246c-0.193 0.186-0.499 0.184-0.688-0.006s-0.192-0.495-0.006-0.688l0-0zM19.829 18.651v0c0.192 0.192 0.192 0.502 0 0.694s-0.503 0.192-0.694-0l-2.214-2.214c-0.36 0.171-0.775 0.186-1.147 0.042s-0.669-0.433-0.821-0.801c-0.152-0.368-0.147-0.783 0.014-1.148s0.466-0.646 0.841-0.78v-4.795c0-0.271 0.22-0.491 0.491-0.491s0.491 0.22 0.491 0.491v4.795c0.387 0.138 0.698 0.434 0.855 0.813s0.147 0.808-0.029 1.18l2.214 2.214zM16.299 16.29c0.192 0 0.365-0.116 0.438-0.293s0.033-0.381-0.103-0.517c-0.136-0.136-0.34-0.176-0.517-0.103s-0.293 0.246-0.293 0.438c0 0.262 0.213 0.474 0.475 0.475z"></path>
</symbol>

<symbol id="icon-checkmark" viewBox="0 0 34 32">
<path fill="#fff" style="fill: var(--color1, #fff)" d="M14.745 18.51l-3.412-3.412c-0.288-0.288-0.647-0.425-1.079-0.413s-0.791 0.163-1.078 0.452c-0.288 0.288-0.431 0.654-0.431 1.098s0.144 0.81 0.431 1.098l4.471 4.471c0.288 0.288 0.654 0.431 1.098 0.431s0.81-0.144 1.098-0.431l8.902-8.902c0.287-0.288 0.425-0.647 0.412-1.079s-0.163-0.791-0.452-1.078c-0.287-0.288-0.654-0.431-1.098-0.431s-0.811 0.144-1.098 0.431l-7.765 7.765zM16.941 31.372c-2.17 0-4.209-0.412-6.118-1.236s-3.569-1.941-4.98-3.352c-1.412-1.412-2.529-3.072-3.352-4.98s-1.235-3.948-1.236-6.118c0-2.17 0.412-4.209 1.236-6.118s1.941-3.569 3.352-4.98c1.412-1.412 3.072-2.529 4.98-3.352s3.948-1.235 6.118-1.236c2.17 0 4.209 0.412 6.118 1.236s3.569 1.941 4.981 3.352c1.412 1.412 2.53 3.072 3.354 4.98s1.236 3.948 1.235 6.118c0 2.17-0.412 4.209-1.236 6.118s-1.941 3.569-3.352 4.98c-1.412 1.412-3.072 2.53-4.981 3.354s-3.948 1.236-6.118 1.234zM16.941 28.235c3.477 0 6.438-1.222 8.883-3.666s3.667-5.405 3.666-8.883c0-3.477-1.222-6.438-3.666-8.883s-5.405-3.667-8.883-3.666c-3.477 0-6.438 1.222-8.883 3.666s-3.667 5.405-3.666 8.883c0 3.477 1.222 6.438 3.666 8.883s5.405 3.667 8.883 3.666z"></path>
</symbol>

<symbol id="icon-inst" viewBox="0 0 32 32">
<path fill="#fff" style="fill: var(--color1, #fff)" d="M16 13c-0.593 0-1.173 0.176-1.667 0.506s-0.878 0.798-1.105 1.346c-0.227 0.548-0.286 1.151-0.171 1.733s0.401 1.116 0.821 1.536c0.42 0.42 0.954 0.705 1.536 0.821s1.185 0.056 1.733-0.171c0.548-0.227 1.017-0.612 1.346-1.105s0.506-1.073 0.506-1.667c-0.001-0.795-0.317-1.558-0.88-2.12s-1.325-0.879-2.12-0.88zM16 18c-0.396 0-0.782-0.117-1.111-0.337s-0.585-0.532-0.737-0.898c-0.151-0.365-0.191-0.768-0.114-1.156s0.268-0.744 0.547-1.024c0.28-0.28 0.636-0.47 1.024-0.547s0.79-0.038 1.156 0.114 0.678 0.408 0.898 0.737c0.22 0.329 0.337 0.716 0.337 1.111 0 0.53-0.211 1.039-0.586 1.414s-0.884 0.586-1.414 0.586zM19 9.5h-6c-0.928 0.001-1.818 0.37-2.474 1.026s-1.025 1.546-1.026 2.474v6c0.001 0.928 0.37 1.818 1.026 2.474s1.546 1.025 2.474 1.026h6c0.928-0.001 1.818-0.37 2.474-1.026s1.025-1.546 1.026-2.474v-6c-0.001-0.928-0.37-1.818-1.026-2.474s-1.546-1.025-2.474-1.026zM21.5 19c0 0.663-0.263 1.299-0.732 1.768s-1.105 0.732-1.768 0.732h-6c-0.663 0-1.299-0.263-1.768-0.732s-0.732-1.105-0.732-1.768v-6c0-0.663 0.263-1.299 0.732-1.768s1.105-0.732 1.768-0.732h6c0.663 0 1.299 0.263 1.768 0.732s0.732 1.105 0.732 1.768v6zM20 12.75c0 0.148-0.044 0.293-0.126 0.417s-0.2 0.22-0.337 0.276c-0.137 0.057-0.288 0.072-0.433 0.043s-0.279-0.1-0.384-0.205c-0.105-0.105-0.176-0.238-0.205-0.384s-0.014-0.296 0.043-0.433c0.057-0.137 0.153-0.254 0.276-0.337s0.268-0.126 0.417-0.126c0.199 0 0.39 0.079 0.53 0.22s0.22 0.331 0.22 0.53z"></path>
<path fill="none" stroke="#fff" style="stroke: var(--color1, #fff)" stroke-linejoin="miter" stroke-linecap="butt" stroke-miterlimit="4" stroke-width="0.8" d="M31.6 16c0 8.616-6.984 15.6-15.6 15.6s-15.6-6.984-15.6-15.6c0-8.616 6.984-15.6 15.6-15.6s15.6 6.984 15.6 15.6z"></path>
</symbol>

<symbol id="icon-twit" viewBox="0 0 32 32">
<path fill="#fff" style="fill: var(--color1, #fff)" d="M23.462 12.309c-0.038-0.091-0.102-0.169-0.184-0.224s-0.179-0.084-0.278-0.084h-1.902c-0.266-0.452-0.644-0.828-1.098-1.091s-0.969-0.404-1.493-0.409c-0.391-0.005-0.779 0.068-1.141 0.215s-0.691 0.365-0.968 0.641c-0.285 0.28-0.511 0.613-0.665 0.981s-0.233 0.763-0.232 1.162v0.381c-2.516-0.664-4.574-2.711-4.596-2.733-0.067-0.068-0.152-0.115-0.245-0.136s-0.19-0.015-0.28 0.017c-0.090 0.032-0.168 0.090-0.226 0.165s-0.094 0.166-0.102 0.261c-0.269 2.987 0.598 4.986 1.375 6.136 0.379 0.569 0.84 1.078 1.368 1.512-0.952 1.096-2.451 1.671-2.467 1.678-0.071 0.026-0.134 0.068-0.186 0.123s-0.091 0.12-0.114 0.192c-0.023 0.072-0.030 0.148-0.019 0.222s0.038 0.146 0.079 0.209c0.047 0.070 0.234 0.316 0.692 0.545 0.566 0.284 1.314 0.428 2.222 0.428 4.417 0 8.108-3.401 8.484-7.778l1.869-1.869c0.070-0.070 0.117-0.159 0.137-0.256s0.009-0.198-0.029-0.289zM20.649 14.147c-0.086 0.086-0.137 0.2-0.145 0.321-0.254 3.943-3.549 7.032-7.504 7.032-0.66 0-1.125-0.088-1.451-0.193 0.719-0.391 1.722-1.062 2.368-2.030 0.038-0.057 0.064-0.121 0.076-0.188s0.010-0.136-0.005-0.203-0.045-0.129-0.085-0.184c-0.041-0.055-0.092-0.101-0.151-0.135-0.029-0.017-2.744-1.646-2.75-6 1 0.813 2.828 2.073 4.917 2.424 0.072 0.012 0.145 0.008 0.215-0.011s0.135-0.053 0.191-0.1c0.055-0.047 0.1-0.105 0.131-0.171s0.047-0.138 0.047-0.21v-1c-0.001-0.267 0.052-0.531 0.155-0.777s0.254-0.469 0.445-0.656c0.183-0.183 0.4-0.327 0.639-0.425s0.496-0.146 0.754-0.143c0.791 0.010 1.531 0.492 1.84 1.201 0.039 0.089 0.103 0.165 0.184 0.218s0.176 0.081 0.274 0.081h1l-1.142 1.147z"></path>
<path fill="none" stroke="#fff" style="stroke: var(--color1, #fff)" stroke-linejoin="miter" stroke-linecap="butt" stroke-miterlimit="4" stroke-width="0.8" d="M31.6 16c0 8.616-6.984 15.6-15.6 15.6s-15.6-6.984-15.6-15.6c0-8.616 6.984-15.6 15.6-15.6s15.6 6.984 15.6 15.6z"></path>
</symbol>

<symbol id="icon-yt" viewBox="0 0 32 32">
<path fill="#fff" style="fill: var(--color1, #fff)" d="M18.278 15.584l-3-2c-0.075-0.050-0.163-0.079-0.253-0.084s-0.18 0.016-0.26 0.059-0.147 0.106-0.193 0.184c-0.046 0.078-0.071 0.167-0.071 0.257v4c-0 0.091 0.024 0.179 0.071 0.257s0.113 0.141 0.193 0.184c0.080 0.043 0.17 0.063 0.26 0.059s0.178-0.033 0.253-0.084l3-2c0.069-0.046 0.125-0.108 0.164-0.18s0.059-0.154 0.059-0.236-0.020-0.164-0.059-0.236c-0.039-0.073-0.095-0.135-0.164-0.18zM15.5 17.066v-2.128l1.599 1.062-1.599 1.066zM22.646 12.345c-0.059-0.23-0.172-0.444-0.329-0.622s-0.355-0.316-0.576-0.403c-2.142-0.828-5.552-0.82-5.74-0.82s-3.598-0.008-5.74 0.82c-0.221 0.087-0.419 0.225-0.576 0.403s-0.27 0.391-0.329 0.622c-0.162 0.624-0.354 1.764-0.354 3.655s0.192 3.031 0.354 3.655c0.059 0.23 0.172 0.444 0.329 0.622s0.355 0.317 0.577 0.404c2.052 0.792 5.265 0.819 5.699 0.819h0.083c0.434 0 3.648-0.028 5.699-0.819 0.221-0.087 0.419-0.225 0.577-0.404s0.27-0.392 0.329-0.622c0.162-0.625 0.354-1.764 0.354-3.655s-0.192-3.031-0.354-3.655zM21.678 19.408c-0.019 0.077-0.056 0.148-0.108 0.207s-0.117 0.106-0.19 0.136c-1.978 0.764-5.342 0.75-5.375 0.75h-0.004c-0.034 0-3.396 0.012-5.375-0.75-0.073-0.030-0.138-0.076-0.19-0.136s-0.089-0.131-0.108-0.207c-0.152-0.571-0.327-1.622-0.327-3.408s0.175-2.837 0.322-3.404c0.019-0.077 0.056-0.149 0.107-0.209s0.117-0.107 0.191-0.137c1.908-0.737 5.104-0.75 5.366-0.75h0.017c0.034 0 3.399-0.011 5.375 0.75 0.073 0.030 0.138 0.076 0.19 0.136s0.089 0.131 0.108 0.207c0.149 0.57 0.324 1.621 0.324 3.407s-0.175 2.837-0.322 3.404v0.003z"></path>
<path fill="none" stroke="#fff" style="stroke: var(--color1, #fff)" stroke-linejoin="miter" stroke-linecap="butt" stroke-miterlimit="4" stroke-width="0.8" d="M31.6 16c0 8.616-6.984 15.6-15.6 15.6s-15.6-6.984-15.6-15.6c0-8.616 6.984-15.6 15.6-15.6s15.6 6.984 15.6 15.6z"></path>
</symbol>

<symbol id="icon-fb" viewBox="0 0 32 32">
<path fill="none" stroke="#fff" style="stroke: var(--color1, #fff)" stroke-linejoin="round" stroke-linecap="round" stroke-miterlimit="4" stroke-width="1.2" d="M19.333 9.333h-2c-0.884 0-1.732 0.351-2.357 0.976s-0.976 1.473-0.976 2.357v2h-2v2.667h2v5.333h2.667v-5.333h2l0.667-2.667h-2.667v-2c0-0.177 0.070-0.346 0.195-0.471s0.295-0.195 0.471-0.195h2v-2.667z"></path>
<path fill="none" stroke="#fff" style="stroke: var(--color1, #fff)" stroke-linejoin="miter" stroke-linecap="butt" stroke-miterlimit="4" stroke-width="0.8" d="M31.6 16c0 8.616-6.984 15.6-15.6 15.6s-15.6-6.984-15.6-15.6c0-8.616 6.984-15.6 15.6-15.6s15.6 6.984 15.6 15.6z"></path>
</symbol>

<symbol id="icon-call" viewBox="0 0 32 32">
<path fill="#fff" style="fill: var(--color1, #fff)" d="M7.428 10.516c-0.382-2.516 1.392-4.776 4.102-5.604 0.481-0.147 1-0.105 1.451 0.117s0.801 0.608 0.977 1.079l0.87 2.32c0.14 0.373 0.165 0.78 0.073 1.168s-0.299 0.739-0.593 1.008l-2.588 2.37c-0.128 0.117-0.223 0.265-0.276 0.43s-0.063 0.34-0.028 0.51l0.024 0.104 0.062 0.26c0.322 1.263 0.812 2.478 1.458 3.61 0.703 1.203 1.576 2.299 2.592 3.254l0.080 0.072c0.129 0.115 0.286 0.194 0.455 0.23s0.344 0.028 0.509-0.024l3.346-1.054c0.38-0.119 0.788-0.122 1.17-0.009s0.721 0.339 0.974 0.647l1.584 1.922c0.66 0.8 0.58 1.976-0.178 2.682-2.074 1.934-4.926 2.33-6.91 0.736-2.432-1.962-4.482-4.354-6.048-7.058-1.579-2.702-2.631-5.677-3.106-8.77zM13.514 14.046l2.144-1.968c0.588-0.539 1.001-1.241 1.187-2.017s0.135-1.589-0.145-2.335l-0.868-2.32c-0.355-0.947-1.059-1.724-1.966-2.171s-1.952-0.531-2.92-0.235c-3.366 1.030-6.068 4.048-5.496 7.818 0.4 2.632 1.322 5.98 3.356 9.476 1.689 2.915 3.901 5.495 6.524 7.61 2.976 2.39 6.948 1.574 9.528-0.83 0.738-0.687 1.186-1.631 1.253-2.637s-0.253-2-0.895-2.779l-1.584-1.924c-0.507-0.615-1.186-1.065-1.95-1.291s-1.578-0.22-2.338 0.019l-2.778 0.874c-0.717-0.74-1.346-1.56-1.872-2.446-0.509-0.895-0.905-1.85-1.18-2.842v-0.002z"></path>
</symbol>

<symbol id="icon-email" viewBox="0 0 32 32">
<path fill="#fff" style="fill: var(--color1, #fff)" d="M29.334 8c0-1.467-1.2-2.667-2.667-2.667h-21.333c-1.467 0-2.667 1.2-2.667 2.667v16c0 1.467 1.2 2.667 2.667 2.667h21.333c1.467 0 2.667-1.2 2.667-2.667v-16zM26.667 8l-10.667 6.667-10.667-6.667h21.333zM26.667 24h-21.333v-13.333l10.667 6.667 10.667-6.667v13.333z"></path>
</symbol>

<!-- New -->

<symbol id="icon-facebook" viewBox="0 0 32 32">
<path d="M19 6h5v-6h-5c-3.86 0-7 3.14-7 7v3h-4v6h4v16h6v-16h5l1-6h-6v-3c0-0.542 0.458-1 1-1z"></path>
</symbol>

<symbol id="icon-instagram" viewBox="0 0 32 32">
<path d="M29 0h-26c-1.65 0-3 1.35-3 3v26c0 1.65 1.35 3 3 3h26c1.65 0 3-1.35 3-3v-26c0-1.65-1.35-3-3-3zM22 5c0-0.55 0.45-1 1-1h4c0.55 0 1 0.45 1 1v4c0 0.55-0.45 1-1 1h-4c-0.55 0-1-0.45-1-1v-4zM16 10c3.312 0 6 2.688 6 6s-2.688 6-6 6c-3.312 0-6-2.688-6-6s2.688-6 6-6zM28 27v0c0 0.55-0.45 1-1 1h-22c-0.55 0-1-0.45-1-1v0-13h2.2c-0.132 0.644-0.2 1.312-0.2 2 0 5.524 4.474 10 10 10s10-4.476 10-10c0-0.688-0.068-1.356-0.2-2h2.2v13z"></path>
</symbol>

<symbol id="icon-twitter" viewBox="0 0 32 32">
<path d="M32 7.076c-1.176 0.526-2.444 0.876-3.768 1.032 1.356-0.812 2.394-2.1 2.888-3.632-1.268 0.75-2.676 1.3-4.168 1.594-1.2-1.276-2.906-2.068-4.794-2.068-3.626 0-6.562 2.938-6.562 6.562 0 0.512 0.056 1.012 0.168 1.494-5.456-0.276-10.294-2.888-13.532-6.862-0.562 0.968-0.888 2.1-0.888 3.3 0 2.276 1.156 4.288 2.918 5.462-1.076-0.032-2.088-0.332-2.976-0.818 0 0.026 0 0.056 0 0.082 0 3.182 2.262 5.838 5.268 6.438-0.55 0.15-1.132 0.232-1.732 0.232-0.424 0-0.832-0.044-1.238-0.118 0.838 2.606 3.262 4.506 6.132 4.562-2.25 1.762-5.076 2.812-8.156 2.812-0.532 0-1.050-0.032-1.568-0.094 2.912 1.868 6.362 2.95 10.068 2.95 12.074 0 18.682-10.006 18.682-18.682 0-0.288-0.006-0.568-0.018-0.85 1.282-0.918 2.394-2.076 3.274-3.394z"></path>
</symbol>

<symbol id="icon-youtube" viewBox="0 0 32 32">
<path d="M31.682 9.6c0 0-0.312-2.206-1.274-3.174-1.218-1.274-2.582-1.282-3.206-1.356-4.474-0.326-11.194-0.326-11.194-0.326h-0.012c0 0-6.718 0-11.194 0.326-0.626 0.076-1.988 0.082-3.206 1.356-0.962 0.968-1.268 3.174-1.268 3.174s-0.318 2.588-0.318 5.182v2.426c0 2.588 0.318 5.182 0.318 5.182s0.312 2.206 1.268 3.176c1.218 1.274 2.818 1.232 3.532 1.368 2.562 0.244 10.882 0.318 10.882 0.318s6.726-0.012 11.2-0.332c0.626-0.074 1.988-0.082 3.206-1.356 0.962-0.968 1.274-3.176 1.274-3.176s0.318-2.588 0.318-5.182v-2.426c-0.006-2.588-0.324-5.182-0.324-5.182zM12.694 20.15v-8.994l8.644 4.512-8.644 4.482z"></path>
</symbol>

<symbol id="icon-arrow-right2" viewBox="0 0 32 32">
<path d="M19.414 27.414l10-10c0.782-0.78 0.782-2.048 0-2.828l-10-10c-0.782-0.782-2.048-0.782-2.828 0s-0.782 2.048 0 2.828l6.586 6.586h-19.172c-1.104 0-2 0.896-2 2s0.896 2 2 2h19.172l-6.586 6.586c-0.39 0.39-0.586 0.902-0.586 1.414s0.196 1.024 0.586 1.414c0.782 0.782 2.048 0.782 2.828 0z"></path>
</symbol>

<symbol id="icon-arrow-left2" viewBox="0 0 32 32">
<path d="M12.586 27.414l-10-10c-0.782-0.78-0.782-2.048 0-2.828l10-10c0.782-0.782 2.048-0.782 2.828 0s0.782 2.048 0 2.828l-6.586 6.586h19.172c1.104 0 2 0.896 2 2s-0.896 2-2 2h-19.172l6.586 6.586c0.39 0.39 0.586 0.902 0.586 1.414s-0.196 1.024-0.586 1.414c-0.782 0.782-2.048 0.782-2.828 0z"></path>
</symbol>

    </defs>
</svg>
